<svg xmlns="http://www.w3.org/2000/svg" height="24" viewBox="0 -960 960 960" width="24"><path d="M480-218.461q-16.5 0-28.25-11.75T440-258.461q0-16.501 11.75-28.251t28.25-11.75q16.5 0 28.25 11.75T520-258.461q0 16.5-11.75 28.25T480-218.461ZM480-440q-16.5 0-28.25-11.75T440-480q0-16.5 11.75-28.25T480-520q16.5 0 28.25 11.75T520-480q0 16.5-11.75 28.25T480-440Zm0-221.538q-16.5 0-28.25-11.75T440-701.539q0-16.5 11.75-28.25t28.25-11.75q16.5 0 28.25 11.75t11.75 28.25q0 16.501-11.75 28.251T480-661.538Z"/></svg>