<svg xmlns="http://www.w3.org/2000/svg" height="24" viewBox="0 -960 960 960" width="24"><path d="M820.231-524.154v319.539q0 27.615-18.5 46.115-18.5 18.5-46.116 18.5H204.846q-27.615 0-46.115-18.5-18.5-18.5-18.5-46.115v-321.077q-25.308-18.693-37.039-49-11.73-30.308-.5-64.693l38.923-128.307q8-24.462 25.808-38.385Q185.231-820 211.461-820h536.001q26.23 0 43.923 13.038 17.692 13.039 25.923 37.731l40.461 129.846q11.231 34.385-.5 65.231-11.73 30.846-37.038 50Zm-252-15.846q38.538 0 57.538-21.577t16-44.577L615.154-780H500.231v168q0 29.461 20.154 50.731Q540.539-540 568.231-540Zm-180 0q32.23 0 52.115-21.269 19.885-21.27 19.885-50.731v-168H345.308l-26.616 176.923q-2.461 18.615 16.27 40.846Q353.692-540 388.231-540Zm-178 0q26.461 0 44.961-18t23.039-44.923L303.308-780h-91.847q-13.076 0-20.769 5.769-7.692 5.77-11.538 17.308l-36.923 126.308q-9.846 31.538 8.423 61.076Q168.923-540 210.231-540Zm540 0q35.923 0 57.384-28 21.462-28 10.616-62.615l-38.923-127.847Q775.461-770 767.769-775T747-780h-89.846l25.077 177.077Q686.769-576 705.269-558q18.5 18 44.962 18ZM204.846-180h550.769q10.77 0 17.693-6.923 6.923-6.923 6.923-17.692v-300.462q-8.077 2.769-15.346 3.923-7.27 1.154-14.654 1.154-27 0-47.5-10.538-20.5-10.539-38.962-33.616-15.692 19.539-38.692 31.846-23 12.308-55.923 12.308-23.923 0-45.5-11.154t-43.423-33q-20.077 21.846-44.5 33T389.154-500q-25.154 0-49.039-9.615-23.884-9.616-41.884-34.539-29.462 29.462-51.5 36.808-22.039 7.346-36.5 7.346-7.385 0-14.885-1.154t-15.115-3.923v300.462q0 10.769 6.923 17.692T204.846-180Zm550.769 0H204.846h550.769Z"/></svg>