<svg xmlns="http://www.w3.org/2000/svg" height="24" viewBox="0 -960 960 960" width="24"><path d="M612.489-535.385q18.665 0 31.55-13.065 12.884-13.066 12.884-31.731t-13.065-31.55q-13.066-12.884-31.731-12.884t-31.55 13.065q-12.885 13.066-12.885 31.731t13.066 31.55q13.066 12.884 31.731 12.884Zm-264.616 0q18.665 0 31.55-13.065 12.885-13.066 12.885-31.731t-13.066-31.55q-13.066-12.884-31.731-12.884t-31.55 13.065q-12.884 13.066-12.884 31.731t13.065 31.55q13.066 12.884 31.731 12.884ZM480-284.615q57.231 0 105.423-31.577 48.193-31.577 72.423-83.808H618q-22 37-58.5 58.5T480-320q-43 0-79.5-21.5T342-400h-39.846q24.23 52.231 72.423 83.808Q422.769-284.615 480-284.615ZM480.134-120q-74.673 0-140.41-28.339-65.737-28.34-114.365-76.922-48.627-48.582-76.993-114.257Q120-405.194 120-479.866q0-74.673 28.339-140.41 28.34-65.737 76.922-114.365 48.582-48.627 114.257-76.993Q405.194-840 479.866-840q74.673 0 140.41 28.339 65.737 28.34 114.365 76.922 48.627 48.582 76.993 114.257Q840-554.806 840-480.134q0 74.673-28.339 140.41-28.34 65.737-76.922 114.365-48.582 48.627-114.257 76.993Q554.806-120 480.134-120ZM480-480Zm0 320q134 0 227-93t93-227q0-134-93-227t-227-93q-134 0-227 93t-93 227q0 134 93 227t227 93Z"/></svg>